<?xml version="1.0" standalone="no"?>
<!DOCTYPE svg PUBLIC "-//W3C//DTD SVG 20010904//EN"
 "http://www.w3.org/TR/2001/REC-SVG-20010904/DTD/svg10.dtd">
<svg version="1.0" xmlns="http://www.w3.org/2000/svg"
 width="104.000000pt" height="104.000000pt" viewBox="0 0 104.000000 104.000000"
 preserveAspectRatio="xMidYMid meet">
<metadata>
Created by potrace 1.14, written by Peter Selinger 2001-2017
</metadata>
<g transform="translate(0.000000,104.000000) scale(0.100000,-0.100000)"
fill="#000000" stroke="none">
<path d="M287 894 c-1 -1 -47 -4 -102 -6 -97 -3 -101 -4 -125 -33 -13 -16 -30
-34 -37 -38 -17 -10 -17 -34 1 -44 23 -14 36 -50 31 -85 -2 -18 -7 -78 -10
-133 -2 -55 -7 -118 -10 -140 -2 -22 -7 -69 -10 -105 -5 -57 -14 -146 -19
-175 0 -5 4 -9 9 -8 6 0 57 4 115 7 266 16 319 25 347 62 27 36 34 29 27 -26
l-6 -50 216 1 216 1 44 42 c44 41 45 42 50 121 3 44 8 96 12 115 6 35 5 35
-58 66 l-64 30 -34 -43 c-20 -24 -34 -52 -32 -63 3 -15 -2 -20 -22 -20 -14 0
-28 6 -32 12 -5 7 -9 111 -11 232 -3 198 -1 221 14 239 18 19 17 19 -82 12
-55 -4 -108 -7 -117 -7 -10 1 -30 -12 -45 -28 -29 -31 -43 -31 -43 1 0 11 -11
31 -24 44 -23 22 -32 24 -111 23 -47 -1 -87 -3 -88 -4z m259 -227 c-2 -32 -6
-60 -8 -62 -1 -2 -19 5 -38 15 -21 12 -28 19 -18 20 27 0 51 45 46 86 -4 32
-3 34 9 18 9 -13 12 -38 9 -77z m-216 48 c0 -8 -4 -15 -10 -15 -5 0 -10 7 -10
15 0 8 5 15 10 15 6 0 10 -7 10 -15z m8 -288 c2 -46 0 -57 -13 -57 -12 0 -15
13 -15 61 0 81 24 77 28 -4z"/>
</g>
</svg>
