<svg width="200" xmlns="http://www.w3.org/2000/svg" xmlns:xlink="http://www.w3.org/1999/xlink" version="1.1" id="Layer_1" x="0px" y="0px" viewBox="0 0 857 135" style="enable-background:new 0 0 857 135;" xml:space="preserve">
<style type="text/css">
    .st0{clip-path:url(#SVGID_2_);}
    .st1{fill:#C4C4C4;}
    .st2{fill:url(#SVGID_3_);}
    .st3{fill:url(#SVGID_4_);}
    .st4{fill:url(#SVGID_5_);}
    .st5{fill:url(#SVGID_6_);}
    .st6{fill:#ffffff;}
    .st7{fill:#59BDEF;}
</style>
    <g>
        <defs>
            <rect id="SVGID_1_" x="0.35" y="0.63" width="217.93" height="134.37"/>
        </defs>
        <clipPath id="SVGID_2_">
            <use xlink:href="#SVGID_1_" style="overflow:visible;"/>
        </clipPath>
        <g class="st0">
            <path class="st1" d="M9.36,53.23l33.01-35.38c9.12-9.77,23.89-9.77,33.01,0l16.23,17.39L75.63,52.37l-8.15-8.73    c-4.76-5.1-12.47-5.1-17.23,0L33.42,61.69c-4.76,5.1-4.76,13.37,0,18.47l16.84,18.05c4.76,5.1,12.47,5.1,17.23,0l16.84-18.05    c0.22-0.24,0.43-0.48,0.64-0.74l24.07-25.47c8.46,9.81,8.25,25.13-0.65,34.66L75.38,124c-9.12,9.77-23.89,9.77-33.01,0L9.36,88.62    C0.25,78.85,0.25,63,9.36,53.23z"/>

            <linearGradient id="SVGID_3_" gradientUnits="userSpaceOnUse" x1="163.1179" y1="37.623" x2="-37.692" y2="90.5045" gradientTransform="matrix(1 0 0 -1 0 136)">
                <stop offset="0" style="stop-color:#20DCEA"/>
                <stop offset="1" style="stop-color:#2060EC"/>
            </linearGradient>
            <path class="st2" d="M9.36,53.23l33.01-35.38c9.12-9.77,23.89-9.77,33.01,0l16.23,17.39L75.63,52.37l-8.15-8.73    c-4.76-5.1-12.47-5.1-17.23,0L33.42,61.69c-4.76,5.1-4.76,13.37,0,18.47l16.84,18.05c4.76,5.1,12.47,5.1,17.23,0l16.84-18.05    c0.22-0.24,0.43-0.48,0.64-0.74l24.07-25.47c8.46,9.81,8.25,25.13-0.65,34.66L75.38,124c-9.12,9.77-23.89,9.77-33.01,0L9.36,88.62    C0.25,78.85,0.25,63,9.36,53.23z"/>
            <path class="st1" d="M109.56,53.23l33.01-35.38c9.12-9.77,23.89-9.77,33.01,0l33.01,35.38c9.12,9.77,9.12,25.61,0,35.38    L175.58,124c-9.12,9.77-23.89,9.77-33.01,0l-15.14-16.23l15.97-17.12l7.05,7.56c4.76,5.1,12.47,5.1,17.23,0l16.84-18.05    c4.76-5.1,4.76-13.37,0-18.47l-16.84-18.05c-4.76-5.1-12.47-5.1-17.23,0l-16.84,18.05c-0.28,0.3-0.54,0.61-0.79,0.93l-23.84,25.35    C100.45,78.16,100.64,62.79,109.56,53.23z"/>

            <linearGradient id="SVGID_4_" gradientUnits="userSpaceOnUse" x1="169.6369" y1="62.2932" x2="-31.173" y2="115.1747" gradientTransform="matrix(1 0 0 -1 0 136)">
                <stop offset="0" style="stop-color:#20DCEA"/>
                <stop offset="1" style="stop-color:#2060EC"/>
            </linearGradient>
            <path class="st3" d="M109.56,53.23l33.01-35.38c9.12-9.77,23.89-9.77,33.01,0l33.01,35.38c9.12,9.77,9.12,25.61,0,35.38    L175.58,124c-9.12,9.77-23.89,9.77-33.01,0l-15.14-16.23l15.97-17.12l7.05,7.56c4.76,5.1,12.47,5.1,17.23,0l16.84-18.05    c4.76-5.1,4.76-13.37,0-18.47l-16.84-18.05c-4.76-5.1-12.47-5.1-17.23,0l-16.84,18.05c-0.28,0.3-0.54,0.61-0.79,0.93l-23.84,25.35    C100.45,78.16,100.64,62.79,109.56,53.23z"/>
            <path class="st1" d="M95,49.63c0.61,3.54-2.52,6.6-6.07,5.95l-21.91-4c-2.02-0.37-2.83-2.8-1.44-4.3l20.93-22.43    c1.47-1.57,4.11-0.79,4.47,1.32L95,49.63z"/>

            <linearGradient id="SVGID_5_" gradientUnits="userSpaceOnUse" x1="172.5479" y1="73.2654" x2="-28.2651" y2="126.1478" gradientTransform="matrix(1 0 0 -1 0 136)">
                <stop offset="0" style="stop-color:#20DCEA"/>
                <stop offset="1" style="stop-color:#2060EC"/>
            </linearGradient>
            <path class="st4" d="M95,49.63c0.61,3.54-2.52,6.6-6.07,5.95l-21.91-4c-2.02-0.37-2.83-2.8-1.44-4.3l20.93-22.43    c1.47-1.57,4.11-0.79,4.47,1.32L95,49.63z"/>
            <path class="st1" d="M124.5,93.96c-0.61-3.54,2.52-6.6,6.07-5.95l21.91,4c2.02,0.37,2.83,2.8,1.44,4.3L133,118.74    c-1.47,1.57-4.11,0.79-4.47-1.32L124.5,93.96z"/>

            <linearGradient id="SVGID_6_" gradientUnits="userSpaceOnUse" x1="159.8768" y1="25.401" x2="-40.9361" y2="78.2834" gradientTransform="matrix(1 0 0 -1 0 136)">
                <stop offset="0" style="stop-color:#20DCEA"/>
                <stop offset="1" style="stop-color:#2060EC"/>
            </linearGradient>
            <path class="st5" d="M124.5,93.96c-0.61-3.54,2.52-6.6,6.07-5.95l21.91,4c2.02,0.37,2.83,2.8,1.44,4.3L133,118.74    c-1.47,1.57-4.11,0.79-4.47-1.32L124.5,93.96z"/>
        </g>
    </g>
    <path class="st6" d="M302.73,72.94c-3.56,0-7.12-0.12-10.68-0.37c-3.5-0.19-7.15-0.68-10.96-1.49V8.57c3-0.56,6.28-0.96,9.84-1.21  c3.56-0.31,6.87-0.47,9.93-0.47c4.12,0,7.9,0.31,11.34,0.93c3.5,0.56,6.5,1.55,8.99,2.98c2.5,1.43,4.43,3.32,5.81,5.67  c1.44,2.29,2.15,5.15,2.15,8.56c0,5.15-2.5,9.21-7.49,12.19c4.12,1.55,6.93,3.66,8.43,6.33c1.5,2.67,2.25,5.67,2.25,9.02  c0,6.76-2.5,11.84-7.49,15.26C319.9,71.24,312.53,72.94,302.73,72.94z M295.33,44.01v16.65c1.06,0.12,2.22,0.22,3.47,0.28  s2.62,0.09,4.12,0.09c4.37,0,7.9-0.62,10.59-1.86c2.69-1.24,4.03-3.53,4.03-6.88c0-2.98-1.12-5.09-3.37-6.33  c-2.25-1.3-5.46-1.95-9.65-1.95H295.33z M295.33,32.94h7.12c4.5,0,7.71-0.56,9.65-1.67c1.94-1.18,2.9-3.04,2.9-5.58  c0-2.6-1-4.43-3-5.49c-2-1.05-4.93-1.58-8.81-1.58c-1.25,0-2.59,0.03-4.03,0.09c-1.44,0-2.72,0.06-3.84,0.19V32.94z M340.75,48.01  c0-4.34,0.66-8.12,1.97-11.35c1.37-3.29,3.15-6.02,5.34-8.19s4.68-3.81,7.49-4.93c2.87-1.12,5.81-1.67,8.81-1.67  c7,0,12.52,2.14,16.58,6.42c4.06,4.22,6.09,10.45,6.09,18.7c0,0.81-0.03,1.71-0.09,2.7c-0.06,0.93-0.12,1.77-0.19,2.51h-31.66  c0.31,2.85,1.66,5.12,4.03,6.79c2.37,1.67,5.56,2.51,9.56,2.51c2.56,0,5.06-0.22,7.49-0.65c2.5-0.5,4.53-1.09,6.09-1.77l1.87,11.26  c-0.75,0.37-1.75,0.74-3,1.12s-2.65,0.68-4.22,0.93c-1.5,0.31-3.12,0.56-4.87,0.74c-1.75,0.19-3.5,0.28-5.25,0.28  c-4.43,0-8.31-0.65-11.62-1.95c-3.25-1.3-5.96-3.07-8.15-5.3c-2.12-2.29-3.72-4.99-4.78-8.09  C341.25,54.96,340.75,51.61,340.75,48.01z M373.54,42.71c-0.06-1.18-0.28-2.33-0.66-3.44c-0.31-1.12-0.84-2.11-1.59-2.98  c-0.69-0.87-1.59-1.58-2.72-2.14c-1.06-0.56-2.4-0.84-4.03-0.84c-1.56,0-2.9,0.28-4.03,0.84c-1.12,0.5-2.06,1.18-2.81,2.05  c-0.75,0.87-1.34,1.89-1.78,3.07c-0.37,1.12-0.66,2.26-0.84,3.44H373.54z M397.33,10.99l13.96-2.23v14.42h16.77v11.53h-16.77v17.21  c0,2.91,0.5,5.24,1.5,6.98c1.06,1.74,3.15,2.6,6.28,2.6c1.5,0,3.03-0.12,4.59-0.37c1.62-0.31,3.09-0.71,4.4-1.21l1.97,10.79  c-1.69,0.68-3.56,1.27-5.62,1.77c-2.06,0.5-4.59,0.74-7.59,0.74c-3.81,0-6.96-0.5-9.46-1.49c-2.5-1.05-4.5-2.48-6-4.28  c-1.5-1.86-2.56-4.09-3.19-6.7c-0.56-2.6-0.84-5.49-0.84-8.65V10.99z M456.43,62.43c1.37,0,2.69-0.03,3.93-0.09  c1.25-0.06,2.25-0.16,3-0.28V51.55c-0.56-0.12-1.41-0.25-2.53-0.37c-1.12-0.12-2.15-0.19-3.09-0.19c-1.31,0-2.56,0.09-3.75,0.28  c-1.12,0.12-2.12,0.4-3,0.84c-0.87,0.43-1.56,1.02-2.06,1.77c-0.5,0.74-0.75,1.67-0.75,2.79c0,2.17,0.72,3.69,2.15,4.56  C451.84,62.03,453.87,62.43,456.43,62.43z M455.31,21.87c4.12,0,7.56,0.47,10.31,1.4c2.75,0.93,4.93,2.26,6.56,4  c1.69,1.74,2.87,3.84,3.56,6.33c0.69,2.48,1.03,5.24,1.03,8.28v28.84c-2,0.43-4.78,0.93-8.34,1.49c-3.56,0.62-7.87,0.93-12.93,0.93  c-3.19,0-6.09-0.28-8.71-0.84c-2.56-0.56-4.78-1.46-6.65-2.7c-1.87-1.3-3.31-2.98-4.31-5.02s-1.5-4.56-1.5-7.53  c0-2.85,0.56-5.27,1.69-7.26c1.19-1.98,2.75-3.57,4.68-4.74c1.94-1.18,4.15-2.02,6.65-2.51c2.5-0.56,5.09-0.84,7.78-0.84  c1.81,0,3.4,0.09,4.78,0.28c1.44,0.12,2.59,0.31,3.47,0.56v-1.3c0-2.36-0.72-4.25-2.15-5.67c-1.44-1.43-3.93-2.14-7.49-2.14  c-2.37,0-4.72,0.19-7.03,0.56c-2.31,0.31-4.31,0.78-6,1.4l-1.78-11.16c0.81-0.25,1.81-0.5,3-0.74c1.25-0.31,2.59-0.56,4.03-0.74  c1.44-0.25,2.94-0.43,4.5-0.56C452.06,21.97,453.68,21.87,455.31,21.87z M538.47,7.64v12.37h-19.58v52.09h-14.61V20.01H484.7V7.64  H538.47z M570.13,35.46c-1.25-0.31-2.72-0.62-4.4-0.93c-1.69-0.37-3.5-0.56-5.43-0.56c-0.87,0-1.94,0.09-3.19,0.28  c-1.19,0.12-2.09,0.28-2.72,0.47v37.4h-13.96V25.78c2.5-0.87,5.43-1.67,8.81-2.42c3.44-0.81,7.24-1.21,11.43-1.21  c0.75,0,1.66,0.06,2.72,0.19c1.06,0.06,2.12,0.19,3.19,0.37c1.06,0.12,2.12,0.31,3.19,0.56c1.06,0.19,1.97,0.43,2.72,0.74  L570.13,35.46z M597.87,62.43c1.37,0,2.69-0.03,3.93-0.09c1.25-0.06,2.25-0.16,3-0.28V51.55c-0.56-0.12-1.41-0.25-2.53-0.37  s-2.15-0.19-3.09-0.19c-1.31,0-2.56,0.09-3.75,0.28c-1.12,0.12-2.12,0.4-3,0.84c-0.87,0.43-1.56,1.02-2.06,1.77  c-0.5,0.74-0.75,1.67-0.75,2.79c0,2.17,0.72,3.69,2.15,4.56C593.28,62.03,595.31,62.43,597.87,62.43z M596.75,21.87  c4.12,0,7.56,0.47,10.31,1.4c2.75,0.93,4.93,2.26,6.56,4c1.69,1.74,2.87,3.84,3.56,6.33s1.03,5.24,1.03,8.28v28.84  c-2,0.43-4.78,0.93-8.34,1.49c-3.56,0.62-7.87,0.93-12.93,0.93c-3.19,0-6.09-0.28-8.71-0.84c-2.56-0.56-4.78-1.46-6.65-2.7  c-1.87-1.3-3.31-2.98-4.31-5.02c-1-2.05-1.5-4.56-1.5-7.53c0-2.85,0.56-5.27,1.69-7.26c1.19-1.98,2.75-3.57,4.68-4.74  s4.15-2.02,6.65-2.51c2.5-0.56,5.09-0.84,7.78-0.84c1.81,0,3.4,0.09,4.78,0.28c1.44,0.12,2.59,0.31,3.47,0.56v-1.3  c0-2.36-0.72-4.25-2.15-5.67c-1.44-1.43-3.93-2.14-7.49-2.14c-2.37,0-4.72,0.19-7.03,0.56c-2.31,0.31-4.31,0.78-6,1.4l-1.78-11.16  c0.81-0.25,1.81-0.5,3-0.74c1.25-0.31,2.59-0.56,4.03-0.74c1.44-0.25,2.94-0.43,4.5-0.56C593.5,21.97,595.12,21.87,596.75,21.87z   M630.82,24.85c2.37-0.68,5.43-1.3,9.18-1.86c3.75-0.62,7.68-0.93,11.8-0.93c4.18,0,7.65,0.56,10.4,1.67  c2.81,1.05,5.03,2.57,6.65,4.56c1.62,1.98,2.78,4.34,3.47,7.07c0.69,2.73,1.03,5.77,1.03,9.12v27.63H659.4V46.15  c0-4.47-0.59-7.63-1.78-9.49c-1.19-1.86-3.4-2.79-6.65-2.79c-1,0-2.06,0.06-3.19,0.19c-1.12,0.06-2.12,0.16-3,0.28v37.77h-13.96  V24.85z M700.14,62.15c2.56,0,4.37-0.25,5.43-0.74c1.06-0.5,1.59-1.46,1.59-2.88c0-1.12-0.69-2.08-2.06-2.88  c-1.37-0.87-3.47-1.83-6.28-2.88c-2.19-0.81-4.18-1.64-6-2.51c-1.75-0.87-3.25-1.89-4.5-3.07c-1.25-1.24-2.22-2.7-2.9-4.37  c-0.69-1.67-1.03-3.69-1.03-6.05c0-4.59,1.72-8.22,5.15-10.88c3.43-2.67,8.15-4,14.15-4c3,0,5.87,0.28,8.62,0.84  c2.75,0.5,4.93,1.05,6.56,1.67l-2.44,10.79c-1.62-0.56-3.4-1.05-5.34-1.49c-1.87-0.43-4-0.65-6.37-0.65c-4.37,0-6.56,1.21-6.56,3.63  c0,0.56,0.09,1.05,0.28,1.49c0.19,0.43,0.56,0.87,1.12,1.3c0.56,0.37,1.31,0.81,2.25,1.3c1,0.43,2.25,0.93,3.75,1.49  c3.06,1.12,5.59,2.23,7.59,3.35c2,1.05,3.56,2.23,4.68,3.53c1.19,1.24,2,2.64,2.44,4.19c0.5,1.55,0.75,3.35,0.75,5.4  c0,4.84-1.84,8.5-5.53,10.98c-3.62,2.48-8.78,3.72-15.46,3.72c-4.37,0-8.03-0.37-10.96-1.12c-2.87-0.74-4.87-1.36-6-1.86l2.34-11.26  c2.37,0.93,4.81,1.67,7.31,2.23C695.23,61.91,697.7,62.15,700.14,62.15z M752.82-0.08c2.62,0,5.03,0.28,7.21,0.84  c2.19,0.5,3.87,0.99,5.06,1.49l-2.72,11.07c-1.25-0.56-2.62-0.96-4.12-1.21c-1.44-0.31-2.78-0.47-4.03-0.47  c-1.69,0-3.12,0.25-4.31,0.74c-1.12,0.43-2.03,1.05-2.72,1.86c-0.62,0.81-1.09,1.77-1.41,2.88c-0.25,1.12-0.37,2.33-0.37,3.63v2.42  h17.24v11.53h-17.24v37.4h-13.96V20.57c0-6.33,1.78-11.35,5.34-15.07C740.42,1.78,745.76-0.08,752.82-0.08z M767.91,48.01  c0-4.34,0.66-8.12,1.97-11.35c1.37-3.29,3.15-6.02,5.34-8.19c2.19-2.17,4.68-3.81,7.49-4.93c2.87-1.12,5.81-1.67,8.81-1.67  c7,0,12.52,2.14,16.58,6.42c4.06,4.22,6.09,10.45,6.09,18.7c0,0.81-0.03,1.71-0.09,2.7c-0.06,0.93-0.12,1.77-0.19,2.51h-31.66  c0.31,2.85,1.66,5.12,4.03,6.79c2.37,1.67,5.56,2.51,9.56,2.51c2.56,0,5.06-0.22,7.49-0.65c2.5-0.5,4.53-1.09,6.09-1.77l1.87,11.26  c-0.75,0.37-1.75,0.74-3,1.12c-1.25,0.37-2.65,0.68-4.22,0.93c-1.5,0.31-3.12,0.56-4.87,0.74c-1.75,0.19-3.5,0.28-5.25,0.28  c-4.43,0-8.31-0.65-11.62-1.95c-3.25-1.3-5.96-3.07-8.15-5.3c-2.12-2.29-3.72-4.99-4.78-8.09  C768.41,54.96,767.91,51.61,767.91,48.01z M800.7,42.71c-0.06-1.18-0.28-2.33-0.66-3.44c-0.31-1.12-0.84-2.11-1.59-2.98  c-0.69-0.87-1.59-1.58-2.72-2.14c-1.06-0.56-2.4-0.84-4.03-0.84c-1.56,0-2.9,0.28-4.03,0.84c-1.12,0.5-2.06,1.18-2.81,2.05  c-0.75,0.87-1.34,1.89-1.78,3.07c-0.37,1.12-0.66,2.26-0.84,3.44H800.7z M854.66,35.46c-1.25-0.31-2.72-0.62-4.4-0.93  c-1.69-0.37-3.5-0.56-5.43-0.56c-0.87,0-1.94,0.09-3.19,0.28c-1.19,0.12-2.09,0.28-2.72,0.47v37.4h-13.96V25.78  c2.5-0.87,5.43-1.67,8.81-2.42c3.43-0.81,7.24-1.21,11.43-1.21c0.75,0,1.66,0.06,2.72,0.19c1.06,0.06,2.12,0.19,3.19,0.37  c1.06,0.12,2.12,0.31,3.19,0.56c1.06,0.19,1.97,0.43,2.72,0.74L854.66,35.46z"/>
    <path class="st7" d="M292.54,120.21l-3.9,3.82v7.08h-8.12V92.77h8.12v21.71l11.87-11.16h9.68l-11.66,11.78l12.7,16.02h-9.84  L292.54,120.21z M333.47,102.9c4.34,0,7.67,1.03,9.99,3.1c2.32,2.03,3.49,5.12,3.49,9.25v15.87h-7.6v-3.46  c-1.53,2.58-4.37,3.88-8.54,3.88c-2.15,0-4.02-0.36-5.62-1.09c-1.56-0.72-2.76-1.72-3.59-3c-0.83-1.27-1.25-2.72-1.25-4.34  c0-2.58,0.97-4.62,2.91-6.1c1.98-1.48,5.01-2.22,9.11-2.22h6.45c0-1.76-0.54-3.1-1.61-4.03c-1.08-0.96-2.69-1.45-4.84-1.45  c-1.49,0-2.97,0.24-4.42,0.72c-1.42,0.45-2.64,1.07-3.64,1.86l-2.91-5.63c1.53-1.07,3.35-1.9,5.46-2.48  C329.01,103.19,331.22,102.9,333.47,102.9z M332.85,126.1c1.39,0,2.62-0.31,3.7-0.93c1.08-0.65,1.84-1.6,2.29-2.84v-2.84h-5.57  c-3.33,0-5,1.09-5,3.26c0,1.03,0.4,1.86,1.2,2.48C330.3,125.81,331.43,126.1,332.85,126.1z M371.53,131.53  c-2.32,0-4.6-0.28-6.82-0.83c-2.22-0.59-3.99-1.31-5.31-2.17l2.71-5.79c1.25,0.79,2.76,1.45,4.53,1.96c1.77,0.48,3.5,0.72,5.2,0.72  c3.44,0,5.15-0.84,5.15-2.53c0-0.79-0.47-1.36-1.41-1.71c-0.94-0.34-2.38-0.64-4.32-0.88c-2.29-0.34-4.18-0.74-5.67-1.19  c-1.49-0.45-2.79-1.24-3.9-2.38c-1.08-1.14-1.61-2.76-1.61-4.86c0-1.76,0.5-3.31,1.51-4.65c1.04-1.38,2.53-2.45,4.48-3.2  c1.98-0.76,4.3-1.14,6.97-1.14c1.98,0,3.94,0.22,5.88,0.67c1.98,0.41,3.61,1,4.89,1.76l-2.71,5.74c-2.46-1.38-5.15-2.07-8.07-2.07  c-1.73,0-3.04,0.24-3.9,0.72c-0.87,0.48-1.3,1.1-1.3,1.86c0,0.86,0.47,1.46,1.41,1.81c0.94,0.34,2.43,0.67,4.48,0.98  c2.29,0.38,4.16,0.79,5.62,1.24c1.46,0.41,2.72,1.19,3.8,2.33c1.08,1.14,1.61,2.72,1.61,4.75c0,1.72-0.52,3.26-1.56,4.6  c-1.04,1.34-2.57,2.39-4.58,3.15C376.63,131.17,374.27,131.53,371.53,131.53z M406.98,131.53c-2.32,0-4.6-0.28-6.82-0.83  c-2.22-0.59-3.99-1.31-5.31-2.17l2.71-5.79c1.25,0.79,2.76,1.45,4.53,1.96c1.77,0.48,3.5,0.72,5.2,0.72c3.44,0,5.15-0.84,5.15-2.53  c0-0.79-0.47-1.36-1.41-1.71c-0.94-0.34-2.38-0.64-4.32-0.88c-2.29-0.34-4.18-0.74-5.67-1.19c-1.49-0.45-2.79-1.24-3.9-2.38  c-1.08-1.14-1.61-2.76-1.61-4.86c0-1.76,0.5-3.31,1.51-4.65c1.04-1.38,2.53-2.45,4.48-3.2c1.98-0.76,4.3-1.14,6.97-1.14  c1.98,0,3.94,0.22,5.88,0.67c1.98,0.41,3.61,1,4.89,1.76l-2.71,5.74c-2.46-1.38-5.15-2.07-8.07-2.07c-1.73,0-3.04,0.24-3.9,0.72  c-0.87,0.48-1.3,1.1-1.3,1.86c0,0.86,0.47,1.46,1.41,1.81c0.94,0.34,2.43,0.67,4.48,0.98c2.29,0.38,4.16,0.79,5.62,1.24  c1.46,0.41,2.72,1.19,3.8,2.33c1.08,1.14,1.61,2.72,1.61,4.75c0,1.72-0.52,3.26-1.56,4.6c-1.04,1.34-2.57,2.39-4.58,3.15  C412.09,131.17,409.73,131.53,406.98,131.53z M444.31,102.9c4.34,0,7.67,1.03,9.99,3.1c2.32,2.03,3.49,5.12,3.49,9.25v15.87h-7.6  v-3.46c-1.53,2.58-4.37,3.88-8.54,3.88c-2.15,0-4.02-0.36-5.62-1.09c-1.56-0.72-2.76-1.72-3.59-3c-0.83-1.27-1.25-2.72-1.25-4.34  c0-2.58,0.97-4.62,2.91-6.1c1.98-1.48,5.01-2.22,9.11-2.22h6.45c0-1.76-0.54-3.1-1.61-4.03c-1.08-0.96-2.69-1.45-4.84-1.45  c-1.49,0-2.97,0.24-4.42,0.72c-1.42,0.45-2.64,1.07-3.64,1.86l-2.91-5.63c1.53-1.07,3.35-1.9,5.46-2.48  C439.86,103.19,442.06,102.9,444.31,102.9z M443.69,126.1c1.39,0,2.62-0.31,3.7-0.93c1.08-0.65,1.84-1.6,2.29-2.84v-2.84h-5.57  c-3.33,0-5,1.09-5,3.26c0,1.03,0.4,1.86,1.2,2.48C441.14,125.81,442.27,126.1,443.69,126.1z"/>
</svg>